<svg xmlns="http://www.w3.org/2000/svg" viewBox="0 0 960 1060" font-family="Microsoft YaHei, PingFang SC, sans-serif">
  <defs>
    <linearGradient id="gFlutter" x1="0%" y1="0%" x2="100%" y2="100%">
      <stop offset="0%" style="stop-color:#E8F5E9"/>
      <stop offset="50%" style="stop-color:#FFF8E1"/>
      <stop offset="100%" style="stop-color:#FCE4EC"/>
    </linearGradient>
    <linearGradient id="gAI" x1="0%" y1="0%" x2="100%" y2="100%">
      <stop offset="0%" style="stop-color:#EDE7F6"/>
      <stop offset="100%" style="stop-color:#E1F5FE"/>
    </linearGradient>
    <filter id="shadow">
      <feDropShadow dx="0" dy="2" stdDeviation="5" flood-color="#0000001a"/>
    </filter>
    <marker id="arrowGreen" markerWidth="10" markerHeight="10" refX="5" refY="5" orient="auto">
      <path d="M0,0 L10,5 L0,10 Z" fill="#4CAF50"/>
    </marker>
    <marker id="arrowOrange" markerWidth="10" markerHeight="10" refX="5" refY="5" orient="auto">
      <path d="M0,0 L10,5 L0,10 Z" fill="#FF9800"/>
    </marker>
    <marker id="arrowPurple" markerWidth="10" markerHeight="10" refX="5" refY="5" orient="auto">
      <path d="M0,0 L10,5 L0,10 Z" fill="#7C4DFF"/>
    </marker>
    <marker id="arrowGray" markerWidth="10" markerHeight="10" refX="5" refY="5" orient="auto">
      <path d="M0,0 L10,5 L0,10 Z" fill="#999"/>
    </marker>
  </defs>

  <!-- ====== 标题 ====== -->
  <text x="480" y="36" text-anchor="middle" font-size="24" font-weight="bold" fill="#2E7D32">华语花 APP — 系统架构图</text>
  <text x="480" y="58" text-anchor="middle" font-size="13" fill="#999">Flutter 跨平台框架 · Supabase 后端云服务 · 双引擎 AI</text>

  <!-- ====================================================================== -->
  <!-- 1. 用户层 -->
  <!-- ====================================================================== -->
  <rect x="60" y="80" width="840" height="68" rx="16" fill="#fff" stroke="#ccc" stroke-width="1.5" filter="url(#shadow)"/>
  <text x="90" y="108" font-size="15" font-weight="bold" fill="#666">📱 用户层（一套代码，编译为五种平台应用）</text>
  <rect x="90" y="119" width="148" height="20" rx="10" fill="#f0f0f0"/>
  <text x="164" y="133" text-anchor="middle" font-size="12" fill="#555">Android APK</text>
  <rect x="248" y="119" width="148" height="20" rx="10" fill="#f0f0f0"/>
  <text x="322" y="133" text-anchor="middle" font-size="12" fill="#555">iOS IPA</text>
  <rect x="406" y="119" width="148" height="20" rx="10" fill="#f0f0f0"/>
  <text x="480" y="133" text-anchor="middle" font-size="12" fill="#555">Web 网页</text>
  <rect x="564" y="119" width="148" height="20" rx="10" fill="#f0f0f0"/>
  <text x="638" y="133" text-anchor="middle" font-size="12" fill="#555">Windows EXE</text>
  <rect x="722" y="119" width="148" height="20" rx="10" fill="#f0f0f0"/>
  <text x="796" y="133" text-anchor="middle" font-size="12" fill="#555">macOS APP</text>

  <!-- 箭头：用户层 → 前端层 -->
  <line x1="480" y1="148" x2="480" y2="174" stroke="#999" stroke-width="2" marker-end="url(#arrowGray)"/>

  <!-- ====================================================================== -->
  <!-- 2. Flutter 前端层 -->
  <!-- ====================================================================== -->
  <rect x="60" y="180" width="840" height="210" rx="18" fill="url(#gFlutter)" stroke="#A5D6A7" stroke-width="2" filter="url(#shadow)"/>
  <text x="90" y="210" font-size="16" font-weight="bold" fill="#2E7D32">Flutter 前端（Flutter 3.41.9 + Dart 3.11.5）</text>

  <!-- 5 个模块卡片 -->
  <rect x="78" y="226" width="152" height="148" rx="12" fill="rgba(255,255,255,0.88)" stroke="rgba(0,0,0,0.06)"/>
  <text x="154" y="258" text-anchor="middle" font-size="28">🗺️</text>
  <text x="154" y="282" text-anchor="middle" font-size="14" font-weight="bold" fill="#333">地图赏花</text>
  <text x="154" y="302" text-anchor="middle" font-size="11" fill="#777">全国花卉地图</text>
  <text x="154" y="320" text-anchor="middle" font-size="11" fill="#777">22个赏花地标记</text>
  <text x="154" y="338" text-anchor="middle" font-size="11" fill="#777">GPS 定位</text>
  <text x="154" y="356" text-anchor="middle" font-size="11" fill="#777">城市/花名搜索</text>

  <rect x="242" y="226" width="152" height="148" rx="12" fill="rgba(255,255,255,0.88)" stroke="rgba(0,0,0,0.06)"/>
  <text x="318" y="258" text-anchor="middle" font-size="28">🌸</text>
  <text x="318" y="282" text-anchor="middle" font-size="14" font-weight="bold" fill="#333">花卉百科</text>
  <text x="318" y="302" text-anchor="middle" font-size="11" fill="#777">每日一花推荐</text>
  <text x="318" y="320" text-anchor="middle" font-size="11" fill="#777">35种花卉图鉴</text>
  <text x="318" y="338" text-anchor="middle" font-size="11" fill="#777">42城市市花</text>
  <text x="318" y="356" text-anchor="middle" font-size="11" fill="#777">季节推荐 · 月份指南</text>

  <rect x="406" y="226" width="152" height="148" rx="12" fill="rgba(255,255,255,0.88)" stroke="rgba(0,0,0,0.06)"/>
  <text x="482" y="258" text-anchor="middle" font-size="28">👥</text>
  <text x="482" y="282" text-anchor="middle" font-size="14" font-weight="bold" fill="#333">花友社区</text>
  <text x="482" y="302" text-anchor="middle" font-size="11" fill="#777">图文发帖</text>
  <text x="482" y="320" text-anchor="middle" font-size="11" fill="#777">花标签 · 位置标记</text>
  <text x="482" y="338" text-anchor="middle" font-size="11" fill="#777">点赞 · 评论</text>
  <text x="482" y="356" text-anchor="middle" font-size="11" fill="#777">图片上传</text>

  <rect x="570" y="226" width="152" height="148" rx="12" fill="rgba(255,255,255,0.88)" stroke="rgba(0,0,0,0.06)"/>
  <text x="646" y="258" text-anchor="middle" font-size="28">🤖</text>
  <text x="646" y="282" text-anchor="middle" font-size="14" font-weight="bold" fill="#333">花语 Bot</text>
  <text x="646" y="302" text-anchor="middle" font-size="11" fill="#777">AI 花卉问答</text>
  <text x="646" y="320" text-anchor="middle" font-size="11" fill="#777">拍照识花</text>
  <text x="646" y="338" text-anchor="middle" font-size="11" fill="#777">离线匹配</text>
  <text x="646" y="356" text-anchor="middle" font-size="11" fill="#777">TTS 语音朗读</text>

  <rect x="734" y="226" width="152" height="148" rx="12" fill="rgba(255,255,255,0.88)" stroke="rgba(0,0,0,0.06)"/>
  <text x="810" y="258" text-anchor="middle" font-size="28">👤</text>
  <text x="810" y="282" text-anchor="middle" font-size="14" font-weight="bold" fill="#333">个人中心</text>
  <text x="810" y="302" text-anchor="middle" font-size="11" fill="#777">邮箱注册/登录</text>
  <text x="810" y="320" text-anchor="middle" font-size="11" fill="#777">我的收藏</text>
  <text x="810" y="338" text-anchor="middle" font-size="11" fill="#777">浏览历史</text>
  <text x="810" y="356" text-anchor="middle" font-size="11" fill="#777">资料编辑 · 设置</text>

  <!-- 两个独立的向下箭头：左 → Supabase，右 → 高德（无横线连接） -->
  <line x1="200" y1="390" x2="200" y2="420" stroke="#4CAF50" stroke-width="2.5" marker-end="url(#arrowGreen)"/>
  <line x1="760" y1="390" x2="760" y2="420" stroke="#FF9800" stroke-width="2.5" marker-end="url(#arrowOrange)"/>

  <!-- 箭头旁边的说明文字 -->
  <text x="200" y="412" text-anchor="middle" font-size="10" fill="#4CAF50">数据请求</text>
  <text x="760" y="412" text-anchor="middle" font-size="10" fill="#FF9800">地图瓦片/搜索</text>

  <!-- ====================================================================== -->
  <!-- 3. 后端服务层（两列并列，无横线连接） -->
  <!-- ====================================================================== -->

  <!-- 左侧：Supabase -->
  <rect x="60" y="428" width="440" height="170" rx="16" fill="#fff" stroke="#81C784" stroke-width="2" filter="url(#shadow)"/>
  <rect x="60" y="428" width="440" height="38" rx="16" fill="#E8F5E9"/>
  <rect x="60" y="450" width="440" height="16" fill="#E8F5E9"/>
  <text x="280" y="453" text-anchor="middle" font-size="15" font-weight="bold" fill="#1B5E20">☁️ 后端服务 — Supabase BaaS</text>

  <rect x="78" y="478" width="198" height="52" rx="8" fill="#E8F5E9" stroke="#C8E6C9"/>
  <text x="177" y="500" text-anchor="middle" font-size="13" font-weight="bold" fill="#2E7D32">🔐 用户认证 (Auth)</text>
  <text x="177" y="520" text-anchor="middle" font-size="11" fill="#666">邮箱注册 / 登录 / 会话管理</text>

  <rect x="286" y="478" width="198" height="52" rx="8" fill="#E8F5E9" stroke="#C8E6C9"/>
  <text x="385" y="500" text-anchor="middle" font-size="13" font-weight="bold" fill="#2E7D32">🗄️ 数据库 (PostgreSQL)</text>
  <text x="385" y="520" text-anchor="middle" font-size="11" fill="#666">帖子 · 评论 · 点赞 · 用户资料</text>

  <rect x="78" y="538" width="198" height="48" rx="8" fill="#E8F5E9" stroke="#C8E6C9"/>
  <text x="177" y="558" text-anchor="middle" font-size="13" font-weight="bold" fill="#2E7D32">📦 文件存储 (Storage)</text>
  <text x="177" y="576" text-anchor="middle" font-size="11" fill="#666">社区图片上传</text>

  <rect x="286" y="538" width="198" height="48" rx="8" fill="#C8E6C9" stroke="#A5D6A7"/>
  <text x="385" y="558" text-anchor="middle" font-size="13" font-weight="bold" fill="#1B5E20">⚡ 边缘函数 (Edge Function)</text>
  <text x="385" y="576" text-anchor="middle" font-size="11" fill="#555">AI 请求中转代理 (Deno 运行时)</text>

  <!-- 右侧：高德地图 -->
  <rect x="520" y="428" width="380" height="170" rx="16" fill="#fff" stroke="#FFCC80" stroke-width="2" filter="url(#shadow)"/>
  <rect x="520" y="428" width="380" height="38" rx="16" fill="#FFF3E0"/>
  <rect x="520" y="450" width="380" height="16" fill="#FFF3E0"/>
  <text x="710" y="453" text-anchor="middle" font-size="15" font-weight="bold" fill="#E65100">🗺️ 地图服务 — 高德地图 API</text>

  <rect x="538" y="478" width="344" height="42" rx="8" fill="#FFF3E0" stroke="#FFE0B2"/>
  <text x="710" y="498" text-anchor="middle" font-size="13" font-weight="bold" fill="#E65100">🗺️ 瓦片图层</text>
  <text x="710" y="514" text-anchor="middle" font-size="11" fill="#888">webrd01.is.autonavi.com（style=7 清新绿）</text>

  <rect x="538" y="526" width="344" height="42" rx="8" fill="#FFF3E0" stroke="#FFE0B2"/>
  <text x="710" y="546" text-anchor="middle" font-size="13" font-weight="bold" fill="#E65100">🔍 地点搜索 (inputtips)</text>
  <text x="710" y="562" text-anchor="middle" font-size="11" fill="#888">按城市名、花名、地名智能搜索</text>

  <rect x="538" y="574" width="344" height="16" rx="8" fill="#FFF3E0" stroke="#FFE0B2"/>
  <text x="710" y="586" text-anchor="middle" font-size="13" font-weight="bold" fill="#E65100">📍 逆地理编码 (regeo) — 坐标 → 地址</text>

  <!-- ====================================================================== -->
  <!-- 箭头：Supabase Edge Function → AI 模型层（单条竖线，无横线） -->
  <!-- ====================================================================== -->
  <line x1="385" y1="598" x2="385" y2="630" stroke="#7C4DFF" stroke-width="2.5" marker-end="url(#arrowPurple)"/>
  <text x="405" y="618" font-size="10" fill="#7C4DFF">AI 调用</text>

  <!-- ====================================================================== -->
  <!-- 4. AI 模型层 -->
  <!-- ====================================================================== -->
  <rect x="60" y="638" width="840" height="160" rx="18" fill="url(#gAI)" stroke="#B39DDB" stroke-width="2" filter="url(#shadow)"/>
  <text x="90" y="668" font-size="16" font-weight="bold" fill="#4527A0">🧠 AI 模型层 — 在线双引擎 + 离线兜底</text>

  <!-- 三列 -->
  <rect x="78" y="686" width="260" height="98" rx="12" fill="rgba(255,255,255,0.85)" stroke="rgba(0,0,0,0.05)"/>
  <text x="208" y="714" text-anchor="middle" font-size="14" font-weight="bold" fill="#333">🧠 DeepSeek 大语言模型</text>
  <text x="208" y="734" text-anchor="middle" font-size="12" fill="#7C4DFF">自然语言花卉问答</text>
  <text x="208" y="754" text-anchor="middle" font-size="11" fill="#888">理解口语化提问（如"最近什么花好看"）</text>
  <text x="208" y="772" text-anchor="middle" font-size="11" fill="#888">多轮对话 · 上下文记忆 · 有温度的回复</text>

  <rect x="350" y="686" width="260" height="98" rx="12" fill="rgba(255,255,255,0.85)" stroke="rgba(0,0,0,0.05)"/>
  <text x="480" y="714" text-anchor="middle" font-size="14" font-weight="bold" fill="#333">👁️ Qwen-VL-Plus 多模态模型</text>
  <text x="480" y="734" text-anchor="middle" font-size="12" fill="#7C4DFF">拍照识花 · 图像理解</text>
  <text x="480" y="754" text-anchor="middle" font-size="11" fill="#888">Base64 图片编码传输</text>
  <text x="480" y="772" text-anchor="middle" font-size="11" fill="#888">阿里云 DashScope API 提供</text>

  <rect x="622" y="686" width="260" height="98" rx="12" fill="rgba(255,255,255,0.85)" stroke="rgba(0,0,0,0.05)"/>
  <text x="752" y="714" text-anchor="middle" font-size="14" font-weight="bold" fill="#333">📚 本地离线匹配引擎</text>
  <text x="752" y="734" text-anchor="middle" font-size="12" fill="#7C4DFF">AI 不可用时自动降级</text>
  <text x="752" y="754" text-anchor="middle" font-size="11" fill="#888">50+ 花卉关键词 · 42 城市市花</text>
  <text x="752" y="772" text-anchor="middle" font-size="11" fill="#888">22 赏花地 · 35 种花卉图鉴</text>

  <!-- ====================================================================== -->
  <!-- 底部图例 -->
  <!-- ====================================================================== -->
  <rect x="260" y="820" width="440" height="34" rx="10" fill="#fafafa" stroke="#e0e0e0"/>
  <line x1="280" y1="837" x2="310" y2="837" stroke="#4CAF50" stroke-width="2.5"/>
  <text x="316" y="841" font-size="11" fill="#666">数据/API 请求</text>
  <line x1="408" y1="837" x2="438" y2="837" stroke="#FF9800" stroke-width="2.5"/>
  <text x="444" y="841" font-size="11" fill="#666">地图服务</text>
  <line x1="524" y1="837" x2="554" y2="837" stroke="#7C4DFF" stroke-width="2.5"/>
  <text x="560" y="841" font-size="11" fill="#666">AI 模型调用</text>

  <text x="480" y="880" text-anchor="middle" font-size="12" fill="#bbb">华语花 — 寻芳中国花卉社区 · 架构图</text>
</svg>
