<svg xmlns="http://www.w3.org/2000/svg" viewBox="0 0 960 980" font-family="Microsoft YaHei, PingFang SC, sans-serif">
  <defs>
    <linearGradient id="gFlutter" x1="0%" y1="0%" x2="100%" y2="100%">
      <stop offset="0%" style="stop-color:#E8F5E9"/>
      <stop offset="50%" style="stop-color:#FFF8E1"/>
      <stop offset="100%" style="stop-color:#FCE4EC"/>
    </linearGradient>
    <linearGradient id="gAI" x1="0%" y1="0%" x2="100%" y2="100%">
      <stop offset="0%" style="stop-color:#EDE7F6"/>
      <stop offset="100%" style="stop-color:#E1F5FE"/>
    </linearGradient>
    <filter id="shadow" x="-5%" y="-5%" width="110%" height="110%">
      <feDropShadow dx="0" dy="2" stdDeviation="4" flood-color="#00000020"/>
    </filter>
    <marker id="arrowGray" markerWidth="8" markerHeight="8" refX="4" refY="4" orient="auto">
      <path d="M0,0 L8,4 L0,8 Z" fill="#999"/>
    </marker>
    <marker id="arrowPurple" markerWidth="8" markerHeight="8" refX="4" refY="4" orient="auto">
      <path d="M0,0 L8,4 L0,8 Z" fill="#7C4DFF"/>
    </marker>
  </defs>

  <!-- 标题 -->
  <text x="480" y="38" text-anchor="middle" font-size="26" font-weight="bold" fill="#2E7D32">🌸 华语花 APP — 系统架构图</text>
  <text x="480" y="60" text-anchor="middle" font-size="13" fill="#999">Flutter 跨平台 · Supabase BaaS · 双引擎 AI</text>

  <!-- ==================== 1. 用户层 ==================== -->
  <rect x="40" y="80" width="880" height="72" rx="16" fill="#fff" stroke="#ddd" stroke-width="2" filter="url(#shadow)"/>
  <circle cx="70" cy="102" r="5" fill="#bbb"/>
  <text x="86" y="107" font-size="14" font-weight="bold" fill="#555">用户层 (Clients) — 一套代码，五端编译</text>

  <rect x="80" y="118" width="140" height="22" rx="11" fill="#f5f5f5"/>
  <text x="150" y="133" text-anchor="middle" font-size="12" fill="#666">📱 Android APK</text>
  <rect x="240" y="118" width="120" height="22" rx="11" fill="#f5f5f5"/>
  <text x="300" y="133" text-anchor="middle" font-size="12" fill="#666">🍎 iOS IPA</text>
  <rect x="380" y="118" width="120" height="22" rx="11" fill="#f5f5f5"/>
  <text x="440" y="133" text-anchor="middle" font-size="12" fill="#666">🌐 Web (SPA)</text>
  <rect x="520" y="118" width="140" height="22" rx="11" fill="#f5f5f5"/>
  <text x="590" y="133" text-anchor="middle" font-size="12" fill="#666">🖥️ Windows EXE</text>
  <rect x="680" y="118" width="140" height="22" rx="11" fill="#f5f5f5"/>
  <text x="750" y="133" text-anchor="middle" font-size="12" fill="#666">💻 macOS APP</text>

  <!-- arrow -->
  <line x1="480" y1="152" x2="480" y2="178" stroke="#999" stroke-width="2" marker-end="url(#arrowGray)"/>

  <!-- ==================== 2. Flutter 前端层 ==================== -->
  <rect x="40" y="185" width="880" height="185" rx="18" fill="url(#gFlutter)" stroke="#A5D6A7" stroke-width="2" filter="url(#shadow)"/>
  <circle cx="70" cy="210" r="5" fill="#4CAF50"/>
  <text x="86" y="215" font-size="14" font-weight="bold" fill="#2E7D32">前端层 — Flutter 3.41.9 + Dart 3.11.5</text>

  <!-- module cards -->
  <rect x="60" y="230" width="158" height="125" rx="12" fill="rgba(255,255,255,0.85)" stroke="rgba(0,0,0,0.06)"/>
  <text x="139" y="256" text-anchor="middle" font-size="22">🗺️</text>
  <text x="139" y="278" text-anchor="middle" font-size="13" font-weight="bold" fill="#333">地图模块</text>
  <text x="139" y="296" text-anchor="middle" font-size="11" fill="#888">flutter_map</text>
  <text x="139" y="312" text-anchor="middle" font-size="11" fill="#888">高德瓦片服务</text>
  <text x="139" y="328" text-anchor="middle" font-size="11" fill="#888">GPS定位 · 地点搜索</text>

  <rect x="230" y="230" width="158" height="125" rx="12" fill="rgba(255,255,255,0.85)" stroke="rgba(0,0,0,0.06)"/>
  <text x="309" y="256" text-anchor="middle" font-size="22">🌸</text>
  <text x="309" y="278" text-anchor="middle" font-size="13" font-weight="bold" fill="#333">发现模块</text>
  <text x="309" y="296" text-anchor="middle" font-size="11" fill="#888">每日花历</text>
  <text x="309" y="312" text-anchor="middle" font-size="11" fill="#888">季节推荐</text>
  <text x="309" y="328" text-anchor="middle" font-size="11" fill="#888">花卉百科 · 月份指南</text>

  <rect x="400" y="230" width="158" height="125" rx="12" fill="rgba(255,255,255,0.85)" stroke="rgba(0,0,0,0.06)"/>
  <text x="479" y="256" text-anchor="middle" font-size="22">👥</text>
  <text x="479" y="278" text-anchor="middle" font-size="13" font-weight="bold" fill="#333">社区模块</text>
  <text x="479" y="296" text-anchor="middle" font-size="11" fill="#888">图文发帖</text>
  <text x="479" y="312" text-anchor="middle" font-size="11" fill="#888">点赞 · 评论</text>
  <text x="479" y="328" text-anchor="middle" font-size="11" fill="#888">图片上传 · 花标签</text>

  <rect x="570" y="230" width="158" height="125" rx="12" fill="rgba(255,255,255,0.85)" stroke="rgba(0,0,0,0.06)"/>
  <text x="649" y="256" text-anchor="middle" font-size="22">🤖</text>
  <text x="649" y="278" text-anchor="middle" font-size="13" font-weight="bold" fill="#333">花语 Bot</text>
  <text x="649" y="296" text-anchor="middle" font-size="11" fill="#888">AI 文字对话</text>
  <text x="649" y="312" text-anchor="middle" font-size="11" fill="#888">拍照识花</text>
  <text x="649" y="328" text-anchor="middle" font-size="11" fill="#888">离线匹配 · TTS朗读</text>

  <rect x="740" y="230" width="158" height="125" rx="12" fill="rgba(255,255,255,0.85)" stroke="rgba(0,0,0,0.06)"/>
  <text x="819" y="256" text-anchor="middle" font-size="22">👤</text>
  <text x="819" y="278" text-anchor="middle" font-size="13" font-weight="bold" fill="#333">个人中心</text>
  <text x="819" y="296" text-anchor="middle" font-size="11" fill="#888">邮箱登录</text>
  <text x="819" y="312" text-anchor="middle" font-size="11" fill="#888">收藏 · 记录</text>
  <text x="819" y="328" text-anchor="middle" font-size="11" fill="#888">浏览历史 · 资料编辑</text>

  <!-- arrows split -->
  <line x1="240" y1="370" x2="240" y2="400" stroke="#999" stroke-width="2"/>
  <line x1="240" y1="395" x2="720" y2="395" stroke="#999" stroke-width="2"/>
  <line x1="720" y1="370" x2="720" y2="400" stroke="#999" stroke-width="2"/>
  <line x1="240" y1="395" x2="240" y2="398" stroke="#999" stroke-width="2" marker-end="url(#arrowGray)"/>
  <line x1="720" y1="395" x2="720" y2="398" stroke="#999" stroke-width="2" marker-end="url(#arrowGray)"/>

  <!-- ==================== 3. 后端双栏 ==================== -->
  <!-- Supabase -->
  <rect x="40" y="405" width="430" height="155" rx="16" fill="#fff" stroke="#81C784" stroke-width="2" filter="url(#shadow)"/>
  <circle cx="70" cy="428" r="5" fill="#4CAF50"/>
  <text x="86" y="433" font-size="14" font-weight="bold" fill="#1B5E20">后端服务层 — Supabase BaaS</text>

  <rect x="60" y="448" width="190" height="48" rx="8" fill="#E8F5E9" stroke="#C8E6C9"/>
  <text x="155" y="470" text-anchor="middle" font-size="12" font-weight="bold" fill="#2E7D32">🔐 Auth 认证</text>
  <text x="155" y="486" text-anchor="middle" font-size="10" fill="#666">邮箱注册/登录 · 会话管理</text>

  <rect x="260" y="448" width="190" height="48" rx="8" fill="#E8F5E9" stroke="#C8E6C9"/>
  <text x="355" y="470" text-anchor="middle" font-size="12" font-weight="bold" fill="#2E7D32">🗄️ Database</text>
  <text x="355" y="486" text-anchor="middle" font-size="10" fill="#666">PostgreSQL · posts/comments/likes</text>

  <rect x="60" y="504" width="190" height="43" rx="8" fill="#E8F5E9" stroke="#C8E6C9"/>
  <text x="155" y="524" text-anchor="middle" font-size="12" font-weight="bold" fill="#2E7D32">📦 Storage</text>
  <text x="155" y="539" text-anchor="middle" font-size="10" fill="#666">图片存储 · post-images 桶</text>

  <rect x="260" y="504" width="190" height="43" rx="8" fill="#E8F5E9" stroke="#C8E6C9"/>
  <text x="355" y="524" text-anchor="middle" font-size="12" font-weight="bold" fill="#2E7D32">⚡ Edge Function</text>
  <text x="355" y="539" text-anchor="middle" font-size="10" fill="#666">Deno 运行时 · AI 请求代理</text>

  <!-- 高德 -->
  <rect x="490" y="405" width="430" height="155" rx="16" fill="#fff" stroke="#FFCC80" stroke-width="2" filter="url(#shadow)"/>
  <circle cx="520" cy="428" r="5" fill="#FF9800"/>
  <text x="536" y="433" font-size="14" font-weight="bold" fill="#E65100">地图服务层 — 高德地图 API</text>

  <rect x="510" y="448" width="190" height="48" rx="8" fill="#FFF3E0" stroke="#FFE0B2"/>
  <text x="605" y="470" text-anchor="middle" font-size="12" font-weight="bold" fill="#E65100">🗺️ 瓦片服务</text>
  <text x="605" y="486" text-anchor="middle" font-size="10" fill="#666">webrd01.is.autonavi.com</text>

  <rect x="710" y="448" width="190" height="48" rx="8" fill="#FFF3E0" stroke="#FFE0B2"/>
  <text x="805" y="470" text-anchor="middle" font-size="12" font-weight="bold" fill="#E65100">🔍 地点搜索</text>
  <text x="805" y="486" text-anchor="middle" font-size="10" fill="#666">inputtips API</text>

  <rect x="510" y="504" width="390" height="43" rx="8" fill="#FFF3E0" stroke="#FFE0B2"/>
  <text x="705" y="524" text-anchor="middle" font-size="12" font-weight="bold" fill="#E65100">📍 逆地理编码 (regeo API) — 坐标转地址</text>

  <!-- arrow from Supabase to AI -->
  <line x1="255" y1="560" x2="255" y2="590" stroke="#7C4DFF" stroke-width="2"/>
  <line x1="255" y1="585" x2="480" y2="585" stroke="#7C4DFF" stroke-width="2"/>
  <line x1="480" y1="560" x2="480" y2="590" stroke="#7C4DFF" stroke-width="2" marker-end="url(#arrowPurple)"/>

  <!-- ==================== 4. AI 模型层 ==================== -->
  <rect x="40" y="598" width="880" height="150" rx="18" fill="url(#gAI)" stroke="#B39DDB" stroke-width="2" filter="url(#shadow)"/>
  <circle cx="70" cy="623" r="5" fill="#7C4DFF"/>
  <text x="86" y="628" font-size="14" font-weight="bold" fill="#4527A0">AI 模型层 — 在线双引擎 + 离线兜底</text>

  <rect x="60" y="643" width="270" height="90" rx="12" fill="rgba(255,255,255,0.8)" stroke="rgba(0,0,0,0.05)"/>
  <text x="195" y="668" text-anchor="middle" font-size="13" font-weight="bold" fill="#333">🧠 DeepSeek 大语言模型</text>
  <text x="195" y="688" text-anchor="middle" font-size="11" fill="#7C4DFF">文本对话 · 自然语言问答</text>
  <text x="195" y="706" text-anchor="middle" font-size="10" fill="#888">多轮对话 · 上下文记忆 · 经 Edge Function 代理</text>

  <rect x="345" y="643" width="270" height="90" rx="12" fill="rgba(255,255,255,0.8)" stroke="rgba(0,0,0,0.05)"/>
  <text x="480" y="668" text-anchor="middle" font-size="13" font-weight="bold" fill="#333">👁️ Qwen-VL-Plus 视觉模型</text>
  <text x="480" y="688" text-anchor="middle" font-size="11" fill="#7C4DFF">拍照识花 · 多模态图像理解</text>
  <text x="480" y="706" text-anchor="middle" font-size="10" fill="#888">Base64 图片传输 · 阿里云 DashScope API</text>

  <rect x="630" y="643" width="270" height="90" rx="12" fill="rgba(255,255,255,0.8)" stroke="rgba(0,0,0,0.05)"/>
  <text x="765" y="668" text-anchor="middle" font-size="13" font-weight="bold" fill="#333">📚 本地离线匹配引擎</text>
  <text x="765" y="688" text-anchor="middle" font-size="11" fill="#7C4DFF">关键词检索 · 离线优先</text>
  <text x="765" y="706" text-anchor="middle" font-size="10" fill="#888">50+ 花卉词库 · 42 城市市花 · AI 不可用时自动降级</text>

  <!-- bottom note -->
  <text x="480" y="775" text-anchor="middle" font-size="11" fill="#bbb">华语花 APP — 寻芳中国花卉社区</text>
</svg>
